<svg width="23" height="19" viewBox="0 0 23 19" fill="none" xmlns="http://www.w3.org/2000/svg">
<path d="M22.5418 0.720994H21.0282V0.538484C21.0282 0.390225 20.9762 0.248535 20.8845 0.14686C20.7927 0.0450224 20.6688 -0.00748482 20.5435 0.000862495L11.5 0.617056L2.45646 0.000862495C2.33047 -0.00748482 2.20718 0.0450224 2.1155 0.14686C2.02377 0.248589 1.97177 0.390278 1.97177 0.538484V0.720994H0.458167C0.205167 0.720994 0 0.96215 0 1.25953V18.4615C0 18.7588 0.205167 19 0.458167 19H22.5418C22.7948 19 23 18.7588 23 18.4615V1.25953C23 0.96215 22.7948 0.720994 22.5418 0.720994ZM11.9582 1.66478L20.1119 1.10922V15.8932L11.9582 16.4487V1.66478ZM2.8881 1.10917L11.0418 1.66478V16.4487L2.8881 15.8931V1.10917ZM22.0837 17.9229H0.916335V1.79807H1.97177V16.4013C1.97177 16.6867 2.16108 16.9225 2.40341 16.939L11.4735 17.557C11.4823 17.5576 11.4911 17.5579 11.4998 17.5579C11.4999 17.5579 11.4999 17.5579 11.5 17.5579H11.5H11.5C11.5001 17.5579 11.5001 17.5579 11.5002 17.5579C11.509 17.5579 11.5178 17.5576 11.5265 17.557L20.5966 16.939C20.8389 16.9224 21.0282 16.6866 21.0282 16.4013V1.79807H22.0837V17.9229Z" fill="#FCA311"/>
<path d="M9.81768 2.98807L6.61908 2.77012C6.36635 2.75251 6.14982 2.97972 6.13512 3.27656C6.1205 3.57351 6.31344 3.82819 6.56598 3.84542L9.76458 4.06336C9.77361 4.06401 9.78263 4.06428 9.79152 4.06428C10.0324 4.06428 10.2344 3.84327 10.2485 3.55693C10.2632 3.25998 10.0703 3.00525 9.81768 2.98807Z" fill="#FCA311"/>
<path d="M4.24366 3.68712L5.03239 3.74087C5.04142 3.74152 5.05044 3.74179 5.05933 3.74179C5.30024 3.74179 5.5022 3.52077 5.51635 3.23443C5.53097 2.93748 5.33808 2.68281 5.08549 2.66563L4.29676 2.61188C4.04289 2.59465 3.8275 2.82148 3.8128 3.11832C3.79813 3.41522 3.99102 3.66995 4.24366 3.68712Z" fill="#FCA311"/>
<path d="M9.81761 5.46021L4.29669 5.08404C4.04282 5.06687 3.82744 5.29364 3.81273 5.59049C3.79811 5.88743 3.991 6.14211 4.24359 6.15934L9.76451 6.53551C9.77353 6.53616 9.78256 6.53642 9.79145 6.53642C10.0324 6.53642 10.2343 6.31541 10.2485 6.02907C10.2631 5.73212 10.0702 5.47739 9.81761 5.46021Z" fill="#FCA311"/>
<path d="M9.81761 7.98376L4.29669 7.60759C4.04282 7.59052 3.82744 7.81719 3.81273 8.11403C3.79811 8.41098 3.991 8.66566 4.24359 8.68289L9.76451 9.05906C9.77353 9.0597 9.78256 9.05997 9.79145 9.05997C10.0324 9.05997 10.2343 8.83896 10.2485 8.55262C10.2631 8.25567 10.0702 8.00099 9.81761 7.98376Z" fill="#FCA311"/>
<path d="M9.81761 10.4561L4.29669 10.0799C4.04282 10.0628 3.82744 10.2895 3.81273 10.5863C3.79811 10.8833 3.991 11.1379 4.24359 11.1552L9.76451 11.5313C9.77353 11.532 9.78256 11.5323 9.79145 11.5323C10.0324 11.5323 10.2343 11.3112 10.2485 11.0249C10.2631 10.728 10.0702 10.4732 9.81761 10.4561Z" fill="#FCA311"/>
<path d="M18.7909 10.0798L15.3732 10.3127C15.1205 10.3298 14.9277 10.5846 14.9423 10.8815C14.9565 11.1678 15.1584 11.3889 15.3993 11.3889C15.4082 11.3889 15.4172 11.3886 15.4263 11.388L18.844 11.1551C19.0966 11.1379 19.2895 10.8832 19.2748 10.5862C19.2601 10.2894 19.0453 10.0624 18.7909 10.0798Z" fill="#FCA311"/>
<path d="M14.0149 10.4052L13.27 10.4559C13.0174 10.4731 12.8244 10.7278 12.8391 11.0248C12.8533 11.311 13.0552 11.5321 13.2961 11.5321C13.305 11.5321 13.314 11.5318 13.3231 11.5312L14.068 11.4805C14.3205 11.4633 14.5135 11.2086 14.4988 10.9116C14.4841 10.6148 14.2681 10.3878 14.0149 10.4052Z" fill="#FCA311"/>
<path d="M18.7909 7.60759L13.27 7.98376C13.0173 8.00094 12.8244 8.25567 12.8391 8.55262C12.8533 8.8389 13.0552 9.05997 13.2961 9.05997C13.305 9.05997 13.314 9.0597 13.3231 9.05906L18.844 8.68289C19.0966 8.66571 19.2895 8.41098 19.2748 8.11403C19.2601 7.81719 19.0453 7.59052 18.7909 7.60759Z" fill="#FCA311"/>
<path d="M18.7909 5.08397L13.27 5.46014C13.0173 5.47732 12.8244 5.73205 12.8391 6.029C12.8533 6.31528 13.0552 6.53635 13.2961 6.53635C13.305 6.53635 13.314 6.53608 13.3231 6.53544L18.844 6.15927C19.0966 6.14209 19.2895 5.88736 19.2748 5.59041C19.2601 5.29352 19.0453 5.06631 18.7909 5.08397Z" fill="#FCA311"/>
<path d="M18.7909 2.61184L13.27 2.988C13.0173 3.00518 12.8244 3.25991 12.8391 3.55686C12.8533 3.84315 13.0552 4.06422 13.2961 4.06422C13.305 4.06422 13.314 4.06395 13.3231 4.0633L18.844 3.68713C19.0966 3.66995 19.2895 3.41523 19.2748 3.11828C19.2601 2.82144 19.0453 2.59444 18.7909 2.61184Z" fill="#FCA311"/>
</svg>
