<svg width="16" height="16" viewBox="0 0 18 18" fill="none" xmlns="http://www.w3.org/2000/svg">
<path d="M9.00775 0.00793457C9.00536 0.00793457 9.00218 0.00833182 8.9998 0.00833182C8.99702 0.00833182 8.99464 0.00793457 8.99186 0.00793457C4.02617 0.00793457 0 4.03371 0 9.00019C0 13.9659 4.02617 17.992 8.99186 17.992C8.99464 17.992 8.99702 17.992 8.9998 17.992C9.00218 17.992 9.00536 17.992 9.00775 17.992C13.9734 17.992 17.9996 13.9659 17.9996 9.00019C18 4.03371 13.9738 0.00793457 9.00775 0.00793457ZM9.00775 15.4178C9.00536 15.4178 9.00218 15.4174 8.9998 15.4174C8.99702 15.4174 8.99464 15.4178 8.99186 15.4178C8.17907 15.4178 7.52003 14.7592 7.52003 13.946C7.52003 13.1336 8.17907 12.475 8.99186 12.475C8.99464 12.475 8.99702 12.475 8.9998 12.475C9.00218 12.475 9.00536 12.475 9.00775 12.475C9.82013 12.475 10.48 13.1336 10.48 13.946C10.48 14.7588 9.82132 15.4178 9.00775 15.4178ZM11.1184 4.20215C11.0222 5.6708 10.3509 10.0386 10.3509 10.0386C10.3509 10.7751 9.74743 11.3718 9.01092 11.3718C9.00695 11.3718 9.00298 11.3718 8.9994 11.3718C8.99583 11.3718 8.99146 11.3718 8.98788 11.3718C8.25177 11.3718 7.64834 10.7743 7.64834 10.0386C7.64834 10.0386 6.97738 5.6708 6.88124 4.20215C6.83357 3.46683 7.39688 2.10147 8.98828 2.10147C8.99225 2.10147 8.99623 2.10186 8.9998 2.10186C9.00338 2.10186 9.00735 2.10147 9.01132 2.10147C10.6023 2.10147 11.1664 3.46683 11.1184 4.20215Z" fill="#CE0000"/>
</svg>
