<svg width="15" height="15" viewBox="0 0 15 15" fill="none" xmlns="http://www.w3.org/2000/svg">
<path d="M4.50288 5.0244L6.90229 2.44335V10.2158C6.90229 10.5469 7.1689 10.8135 7.49995 10.8135C7.83101 10.8135 8.09761 10.5469 8.09761 10.2158V2.44335L10.497 5.0244C10.7226 5.26757 11.1005 5.27929 11.3437 5.05663C11.5869 4.83104 11.5986 4.45311 11.3759 4.20995L7.9394 0.512685C7.60249 0.172841 7.1894 0.360341 7.06343 0.512685L3.6269 4.20995C3.40132 4.45311 3.41597 4.83104 3.65913 5.05663C3.89937 5.27929 4.27729 5.26757 4.50288 5.0244Z" fill="#F6F6F6"/>
<path d="M14.0801 9.99609C13.749 9.99609 13.4824 10.2627 13.4824 10.5937V13.4766H1.51758V10.5937C1.51758 10.2627 1.25098 9.99609 0.919922 9.99609C0.588867 9.99609 0.322266 10.2656 0.322266 10.5937V14.0742C0.322266 14.4053 0.588867 14.6719 0.919922 14.6719H14.0801C14.4111 14.6719 14.6777 14.4053 14.6777 14.0742V10.5937C14.6777 10.2656 14.4111 9.99609 14.0801 9.99609Z" fill="#F6F6F6"/>
</svg>
