<svg width="19" height="19" viewBox="0 0 19 19" fill="none" xmlns="http://www.w3.org/2000/svg">
<path d="M18.3277 3.68195C17.8934 3.24432 17.3161 3.0033 16.702 3.0033C16.0879 3.0033 15.5085 3.24432 15.0743 3.68195L13.6918 5.07315V0.5149C13.6918 0.230503 13.4672 0 13.185 0H4.60208C4.4666 0 4.33664 0.0542689 4.24082 0.150801L0.151666 4.27008C0.0558867 4.36661 0 4.49759 0 4.63414V18.4851C0 18.7695 0.232824 19 0.514967 19H13.185C13.4672 19 13.6918 18.7695 13.6918 18.4851V11.6269L18.3256 6.9588C18.7598 6.52114 19 5.93929 19 5.32038C19 4.70146 18.7619 4.11961 18.3277 3.68195ZM4.08712 1.758V4.11924H1.74837L4.08712 1.758ZM12.6701 17.9702H1.02177V5.14908H4.60208C4.88426 5.14908 5.10888 4.91854 5.10888 4.63418V1.0298H12.6701V6.10296L6.94606 11.8741C6.94357 11.8766 6.9425 11.8793 6.94008 11.8819C6.87481 11.946 6.82675 12.0273 6.80274 12.1193L5.89991 15.5781C5.85367 15.7552 5.90436 15.9438 6.03291 16.0733C6.12991 16.1711 6.26046 16.2241 6.39424 16.2241C6.43755 16.2241 6.4813 16.2185 6.52427 16.2072L9.95619 15.2969C10.0474 15.2727 10.128 15.2238 10.1917 15.158C10.1943 15.1555 10.195 15.1535 10.1975 15.1509L12.6701 12.6567V17.9702H12.6701ZM7.56504 13.2483L8.83593 14.5292L7.11116 14.9866L7.56504 13.2483ZM9.83814 14.0586L8.03188 12.2382L14.5344 5.68451L16.3407 7.50497L9.83814 14.0586ZM17.6051 6.23057L17.0633 6.77674L15.257 4.95628L15.7989 4.41018C16.0401 4.16704 16.3609 4.03311 16.702 4.03311C17.0431 4.03311 17.364 4.16704 17.6052 4.41018C17.8465 4.65333 17.9793 4.97659 17.9793 5.32038C17.9793 5.66417 17.8463 5.9875 17.6051 6.23057Z" fill="#FCA311"/>
</svg>
