<svg width="15" height="15" viewBox="0 0 15 15" fill="none" xmlns="http://www.w3.org/2000/svg">
<path d="M7.5 0C3.36447 0 0 3.36447 0 7.5C0 11.6355 3.36441 15 7.49994 15C11.6355 15 14.9999 11.6355 14.9999 7.5C14.9999 3.36447 11.6355 0 7.5 0ZM7.5 13.1658C4.37587 13.1658 1.83423 10.6241 1.83423 7.5C1.83423 4.37587 4.37587 1.83423 7.5 1.83423C10.6241 1.83423 13.1658 4.37587 13.1658 7.5C13.1658 10.6241 10.6241 13.1658 7.5 13.1658Z" fill="white"/>
<path d="M8.41712 6.67456H6.58289V11.5047H8.41712V6.67456Z" fill="white"/>
<path d="M8.41712 3.49524H6.58289V5.26833H8.41712V3.49524Z" fill="white"/>
</svg>
