<svg width="20" height="19" viewBox="0 0 20 19" fill="none" xmlns="http://www.w3.org/2000/svg">
<path d="M16.3469 0H3.65316C1.63878 0 0 1.55689 0 3.47051V15.5295C0 17.4432 1.63884 19 3.65316 19H16.3469C18.3613 19 20 17.4432 20 15.5295V3.47051C20.0001 1.55689 18.3613 0 16.3469 0ZM18.7343 15.5295C18.7343 16.7801 17.6633 17.7975 16.3469 17.7975H3.65316C2.33676 17.7975 1.26582 16.7801 1.26582 15.5295V3.47051C1.26582 2.21992 2.33676 1.20253 3.65316 1.20253H16.3469C17.6633 1.20253 18.7342 2.21992 18.7342 3.47051L18.7343 15.5295Z" fill="#FCA311"/>
<path d="M10 3.84369C8.28991 3.84369 6.89862 5.16546 6.89862 6.79008C6.89862 7.12213 7.18196 7.39135 7.53153 7.39135C7.8811 7.39135 8.16444 7.12213 8.16444 6.79008C8.16444 5.82854 8.98789 5.04622 10 5.04622C11.0122 5.04622 11.8356 5.82854 11.8356 6.79008C11.8356 7.3431 11.4147 7.71281 10.7212 8.25592C10.0865 8.753 9.36713 9.31646 9.36713 10.2122V12.1413C9.36713 12.4732 9.65052 12.7425 10 12.7425C10.3496 12.7425 10.6329 12.4732 10.6329 12.1413V10.2122C10.6329 9.88357 11.0471 9.55927 11.5264 9.18375C12.2281 8.63414 13.1014 7.95014 13.1014 6.79008C13.1015 5.16542 11.7101 3.84369 10 3.84369Z" fill="#FCA311"/>
<path d="M10.0001 13.6138C9.55238 13.6138 9.18823 13.9598 9.18823 14.3851C9.18823 14.8103 9.55238 15.1563 10.0001 15.1563C10.4477 15.1563 10.8119 14.8103 10.8119 14.3851C10.8119 13.9598 10.4477 13.6138 10.0001 13.6138Z" fill="#FCA311"/>
</svg>
