<svg width="15" height="15" viewBox="0 0 15 15" fill="none" xmlns="http://www.w3.org/2000/svg">
<g clip-path="url(#clip0_65_204)">
<path d="M3.74149 11.3893C3.12979 10.8385 2.68851 10.1781 2.39939 9.46901C1.63247 7.58824 1.99159 5.3514 3.4889 3.80844L4.87056 5.19011C4.94665 5.26619 5.0836 5.21141 5.10186 5.09881L5.8566 0.159503C5.86877 0.077333 5.79878 0.00733664 5.71661 0.0195099L0.774258 0.774253C0.661655 0.792513 0.606876 0.929462 0.682959 1.00555L2.06767 2.39026C-0.217864 4.72752 -0.607408 8.23343 0.892948 10.9724C1.34336 11.7972 1.96724 12.5519 2.76154 13.1849C4.11278 14.2592 5.77443 14.7735 7.42391 14.74L7.73433 12.7101C6.3131 12.8319 4.8523 12.3936 3.74149 11.3893Z" fill="#F6F6F6"/>
<path d="M12.9323 12.6097C15.2178 10.2725 15.6074 6.76657 14.107 4.02759C13.6566 3.20285 13.0327 2.4481 12.2384 1.81509C10.8872 0.740801 9.22552 0.22648 7.57604 0.259957L7.26562 2.28985C8.68381 2.16812 10.1476 2.60636 11.2585 3.61065C11.8702 4.16149 12.3114 4.82189 12.6006 5.53098C13.3675 7.41176 13.0084 9.64859 11.5111 11.1916L10.1294 9.80989C10.0533 9.73381 9.91636 9.78859 9.8981 9.90119L9.14335 14.8405C9.13118 14.9227 9.20118 14.9927 9.28334 14.9805L14.2257 14.2257C14.3383 14.2075 14.39 14.0705 14.317 13.9945L12.9323 12.6097Z" fill="#F6F6F6"/>
</g>
<defs>
<clipPath id="clip0_65_204">
<rect width="15" height="15" fill="white"/>
</clipPath>
</defs>
</svg>
