<svg width="20" height="20" viewBox="0 0 20 20" fill="none" xmlns="http://www.w3.org/2000/svg">
<path d="M5.22774 14.1121C4.34453 14.1121 3.62617 13.793 3.0875 13.1594C2.54883 12.5258 2.19532 11.5856 1.98946 10.2176C1.68633 8.20159 1.98711 6.50237 2.83633 5.43323C3.33633 4.80354 3.99258 4.43948 4.73399 4.38089C5.36875 4.33011 6.31758 4.58753 7.23399 6.09964C7.80782 7.04651 8.24414 8.30433 8.43125 9.55042C8.65742 11.0547 8.48907 12.1621 7.91641 12.9352C7.46172 13.5492 6.7625 13.9297 5.83789 14.068C5.63587 14.0977 5.43193 14.1124 5.22774 14.1121Z" fill="#FCA311"/>
<path d="M6.75784 19.375C6.24182 19.375 5.71878 19.2098 5.24768 18.8922C4.56789 18.4316 4.09735 17.7213 3.93831 16.9157C3.82698 16.343 3.89378 15.8879 4.14222 15.5235C4.54573 14.9317 5.26995 14.7985 6.03636 14.6571C6.11721 14.6422 6.19925 14.6274 6.28245 14.6114C6.45901 14.5778 6.63948 14.5332 6.81448 14.4899C7.46995 14.3282 8.14807 14.1606 8.70784 14.5582C9.08245 14.8239 9.29378 15.2754 9.35706 15.9379C9.42893 16.7024 9.26487 17.4653 8.89495 18.0864C8.4969 18.7547 7.90003 19.1965 7.21526 19.3309C7.06457 19.3603 6.91138 19.3751 6.75784 19.375Z" fill="#FCA311"/>
<path d="M14.7723 10.3621C14.5683 10.3614 14.3646 10.3457 14.1629 10.3152C13.2387 10.1785 12.5395 9.79764 12.0848 9.18241C11.5121 8.40936 11.3426 7.30233 11.5699 5.79764C11.757 4.55038 12.1922 3.29374 12.7633 2.35038C13.675 0.843735 14.625 0.582407 15.2633 0.628501C16.0024 0.682407 16.6574 1.04139 17.1582 1.66756C18.0133 2.7367 18.3164 4.441 18.0121 6.466C17.8063 7.83319 17.4574 8.76873 16.9141 9.4078C16.3707 10.0469 15.6555 10.3621 14.7723 10.3621Z" fill="#FCA311"/>
<path d="M13.2422 15.625C13.0891 15.625 12.9363 15.6102 12.786 15.5808C12.1 15.4465 11.5031 15.0047 11.1063 14.3363C10.7363 13.7152 10.5723 12.9523 10.6442 12.1879C10.7067 11.5238 10.9176 11.0738 11.2934 10.8078C11.8531 10.4105 12.5313 10.5777 13.1867 10.7398C13.3617 10.7828 13.5422 10.8273 13.7188 10.8613L13.9645 10.907C14.7313 11.048 15.4555 11.1804 15.859 11.773C16.1074 12.1375 16.1742 12.5933 16.0629 13.1652C15.904 13.971 15.4334 14.6815 14.7535 15.1422C14.2797 15.4601 13.7567 15.625 13.2422 15.625Z" fill="#FCA311"/>
</svg>
